#N canvas 506 160 1017 742 12;
#X obj 856 406 midiout;
#X obj 36 22 vsl 15 128 0 127 0 0 empty empty Osc\\\ 1 -7 -9 0 10 #fcfcfc
#000000 #000000 0 1;
#X obj 113 22 vsl 15 128 0 127 0 0 empty empty Osc\\\ 2 -7 -9 0 10
#fcfcfc #000000 #000000 0 1;
#X obj 274 22 vsl 15 128 0 127 0 0 empty empty Noise -7 -9 0 10 #fcfcfc
#000000 #000000 0 1;
#X floatatom 264 159 5 0 0 0 - - - 0;
#X floatatom 112 160 5 0 0 0 - - - 0;
#X floatatom 35 162 5 0 0 0 - - - 0;
#X obj 860 293 midiin;
#X obj 11 211 ctlout 102;
#X obj 97 210 ctlout 103;
#X obj 260 212 ctlout 104;
#X obj 323 334 vsl 15 128 0 127 0 0 empty empty A 0 -9 0 10 #fcfcfc
#000000 #000000 0 1;
#X obj 365 333 vsl 15 128 0 127 0 0 empty empty D 0 -9 0 10 #fcfcfc
#000000 #000000 0 1;
#X obj 410 333 vsl 15 128 0 127 0 0 empty empty S 0 -9 0 10 #fcfcfc
#000000 #000000 0 1;
#X obj 455 333 vsl 15 128 0 127 0 0 empty empty R 0 -9 0 10 #fcfcfc
#000000 #000000 0 1;
#X floatatom 361 473 5 0 0 0 - - - 0;
#X floatatom 313 474 5 0 0 0 - - - 0;
#X floatatom 409 474 5 0 0 0 - - - 0;
#X floatatom 455 475 5 0 0 0 - - - 0;
#X obj 174 36 vradio 15 1 0 5 empty empty Octave 0 -8 0 10 #fcfcfc
#000000 #000000 0;
#X obj 66 37 vradio 15 1 0 4 empty empty Wave\\\ 1 -8 -8 0 10 #fcfcfc
#000000 #000000 0;
#X obj 142 36 vradio 15 1 0 4 empty empty Wave\\\ 2 -8 -8 0 10 #fcfcfc
#000000 #000000 0;
#X obj 212 23 vsl 15 128 0 127 0 0 empty empty Detune 0 -9 0 10 #fcfcfc
#000000 #000000 0 1;
#X obj 640 26 vsl 15 128 0 127 0 0 empty empty Freq 0 -9 0 10 #fcfcfc
#000000 #000000 0 1;
#X obj 698 26 vsl 15 128 0 127 0 0 empty empty Res 0 -9 0 10 #fcfcfc
#000000 #000000 0 1;
#X floatatom 630 165 5 0 0 0 - - - 0;
#X floatatom 692 165 5 0 0 0 - - - 0;
#X obj 351 15 vradio 15 1 0 13 empty empty Bend\\\ Range -12 -8 0 10
#fcfcfc #000000 #000000 0;
#X floatatom 342 220 5 0 0 0 - - - 0;
#X obj 623 334 vsl 15 128 0 127 0 0 empty empty LFO\\\ Rate -10 -9
0 10 #fcfcfc #000000 #000000 0 1;
#X obj 89 339 vsl 15 128 0 127 0 0 empty empty LFO 0 -9 0 10 #fcfcfc
#000000 #000000 0 1;
#X obj 655 346 vradio 15 1 0 4 empty empty Wave 0 -8 0 10 #fcfcfc #000000
#000000 0;
#X floatatom 612 473 5 0 0 0 - - - 0;
#X floatatom 89 475 5 0 0 0 - - - 0;
#X obj 761 26 vsl 15 128 0 127 0 0 empty empty Env 0 -9 0 10 #fcfcfc
#000000 #000000 0 1;
#X floatatom 761 162 5 0 0 0 - - - 0;
#X obj 823 24 vsl 15 128 0 127 0 0 empty empty LFO 0 -9 0 10 #fcfcfc
#000000 #000000 0 1;
#X floatatom 823 160 5 0 0 0 - - - 0;
#X obj 40 340 vsl 15 128 0 127 0 0 empty empty Env 0 -9 0 10 #fcfcfc
#000000 #000000 0 1;
#X floatatom 40 476 5 0 0 0 - - - 0;
#X obj 468 17 vsl 15 128 0 127 0 0 empty empty LFO 0 -9 0 10 #fcfcfc
#000000 #000000 0 1;
#X floatatom 468 153 5 0 0 0 - - - 0;
#X obj 419 18 vsl 15 128 0 127 0 0 empty empty Env 0 -9 0 10 #fcfcfc
#000000 #000000 0 1;
#X floatatom 419 154 5 0 0 0 - - - 0;
#X obj 611 511 ctlout 122;
#X obj 648 420 ctlout 123;
#X obj 21 244 ctlout 105;
#X obj 110 245 ctlout 106;
#X obj 192 247 ctlout 107;
#X obj 272 245 ctlout 108;
#X obj 349 244 ctlout 109;
#X obj 397 184 ctlout 110;
#X obj 478 185 ctlout 111;
#X obj 609 202 ctlout 112;
#X obj 692 200 ctlout 113;
#X obj 773 200 ctlout 114;
#X obj 857 200 ctlout 115;
#X obj 18 505 ctlout 116;
#X obj 99 505 ctlout 117;
#X obj 285 505 ctlout 118;
#X obj 337 534 ctlout 119;
#X obj 389 506 ctlout 120;
#X obj 445 535 ctlout 121;
#X connect 1 0 6 0;
#X connect 2 0 5 0;
#X connect 3 0 4 0;
#X connect 4 0 10 0;
#X connect 5 0 9 0;
#X connect 6 0 8 0;
#X connect 7 0 0 0;
#X connect 11 0 16 0;
#X connect 12 0 15 0;
#X connect 13 0 17 0;
#X connect 14 0 18 0;
#X connect 15 0 60 0;
#X connect 16 0 59 0;
#X connect 17 0 61 0;
#X connect 18 0 62 0;
#X connect 19 0 48 0;
#X connect 20 0 46 0;
#X connect 21 0 47 0;
#X connect 22 0 49 0;
#X connect 23 0 25 0;
#X connect 24 0 26 0;
#X connect 25 0 53 0;
#X connect 26 0 54 0;
#X connect 27 0 28 0;
#X connect 28 0 50 0;
#X connect 29 0 32 0;
#X connect 30 0 33 0;
#X connect 31 0 45 0;
#X connect 32 0 44 0;
#X connect 33 0 58 0;
#X connect 34 0 35 0;
#X connect 35 0 55 0;
#X connect 36 0 37 0;
#X connect 37 0 56 0;
#X connect 38 0 39 0;
#X connect 39 0 57 0;
#X connect 40 0 41 0;
#X connect 41 0 52 0;
#X connect 42 0 43 0;
#X connect 43 0 51 0;
